<svg id="Layer_1" data-name="Layer 1" xmlns="http://www.w3.org/2000/svg" viewBox="0 0 512 512"><title>euro_currency_sign</title><ellipse cx="256" cy="255.79" rx="256" ry="255.99" fill="#404041"/><path d="M28,139.52,139.52,28A257.1,257.1,0,0,0,28,139.52Z" fill="#4d4d4f"/><path d="M179.06,11.77,11.77,179.06a254.14,254.14,0,0,0-6.43,24.69L203.75,5.34A253.94,253.94,0,0,0,179.06,11.77Z" fill="#4d4d4f"/><path d="M231.24,1.2l-230,230Q.27,240.84.07,250.64L250.63.07Q240.84.27,231.24,1.2Z" fill="#4d4d4f"/><path d="M273.44.6.6,273.43q.56,8.39,1.66,16.63L290.05,2.26Q281.83,1.17,273.44.6Z" fill="#4d4d4f"/><path d="M309.94,5.71,5.71,309.95q1.59,7.41,3.6,14.66L324.6,9.31Q317.35,7.3,309.94,5.71Z" fill="#4d4d4f"/><path d="M342.32,14.93,14.94,342.33Q17.32,349,20,355.47L355.46,20Q349,17.31,342.32,14.93Z" fill="#4d4d4f"/><path d="M371.41,27.44l-344,344q3,6,6.39,11.86L383.28,33.83Q377.44,30.48,371.41,27.44Z" fill="#4d4d4f"/><path d="M397.69,42.77,42.77,397.69q3.63,5.46,7.53,10.72L408.42,50.31Q403.16,46.4,397.69,42.77Z" fill="#4d4d4f"/><path d="M421.43,60.64,60.65,421.43q4.18,4.93,8.6,9.65L431.08,69.25Q426.36,64.82,421.43,60.64Z" fill="#4d4d4f"/><path d="M442.75,80.91,80.92,442.75q4.72,4.42,9.65,8.6L451.37,90.58Q447.18,85.64,442.75,80.91Z" fill="#4d4d4f"/><path d="M461.69,103.58,103.58,461.69q5.26,3.91,10.73,7.54L469.23,114.31Q465.59,108.85,461.69,103.58Z" fill="#4d4d4f"/><path d="M478.17,128.72,128.71,478.16q5.84,3.35,11.88,6.4l344-344Q481.51,134.56,478.17,128.72Z" fill="#4d4d4f"/><path d="M492,156.53,156.53,492q6.48,2.73,13.14,5.11L497.06,169.67Q494.68,163,492,156.53Z" fill="#4d4d4f"/><path d="M502.69,187.41,187.4,502.69q7.24,2,14.66,3.6L506.29,202.06Q504.7,194.65,502.69,187.41Z" fill="#4d4d4f"/><path d="M509.74,222,221.94,509.74q8.23,1.09,16.62,1.66L511.4,238.56Q510.83,230.18,509.74,222Z" fill="#4d4d4f"/><path d="M510.81,280.75q.92-9.59,1.13-19.38L261.37,511.93q9.79-.2,19.39-1.13Z" fill="#4d4d4f"/><path d="M332.92,500.23,500.23,332.92a254,254,0,0,0,6.42-24.68L308.23,506.66A254.22,254.22,0,0,0,332.92,500.23Z" fill="#4d4d4f"/><path d="M484,372.49,372.48,484A257.12,257.12,0,0,0,484,372.49Z" fill="#4d4d4f"/><path d="M346.67,343.31l-1.54-7c-3.67-16.85-8.56-15.08-23.17-8.35-13.16,6-25.14,7.87-40.38,3.43-13.45-3.93-22.35-15.46-27.64-30.51h38.32c16.89-.5,21.68,2.72,22.28-16.67,0-18.54-6.33-17.08-22.74-17.08H247.85c-.19-4.44-.25-8.93-.14-13.39q.15-4.71.54-9.4h58.4c15.42,0,19.75-.4,19.75-16.7,0-19-5.31-17.06-22.09-17.06H254.45a63.92,63.92,0,0,1,4.51-11c12.37-22.74,35.19-30.48,66-16.41,12.7,5.81,18,9.84,24-4.91l3.37-8.31c5.47-13.55.79-18.17-12.58-23.19-21.59-8.06-41.23-10.26-63.12-8.13-53.3,5.21-72.15,31.68-82.3,72H183.14c-16.42,0-19.27-.22-19.27,16.6,0,6.9.18,12.59,2.92,15.15s8,2,14.5,2h7.27a199.84,199.84,0,0,0-.6,22.79H174.33c-13.86,0-16.87,1.39-16.87,15.73,0,15.24,1.74,18,16.87,18h18a137.23,137.23,0,0,0,14.59,38c22.61,38.95,86.46,41.18,128,26.91C347.41,361.47,349.35,355.67,346.67,343.31Z" fill="#fff" fill-rule="evenodd"/></svg>